<svg xmlns="http://www.w3.org/2000/svg" width="65" height="18" fill="none" viewBox="0 0 65 18"><path fill="#f58900" fill-opacity=".15" fill-rule="evenodd" d="M44 2q.098 0 .196-.01t.194-.028.19-.048.185-.066.178-.084.168-.101.158-.117.145-.132.132-.145.117-.158.1-.168.085-.178.066-.184.048-.19.028-.195T46 0h17q.098 0 .196.01t.194.028.19.048.185.066.178.084.168.101.158.117.145.132.132.145.117.158.1.168.085.178.066.184.048.19.028.195T65 2v14q0 .098-.01.196t-.028.194-.048.19-.066.185-.084.178-.101.168-.117.158-.132.145-.145.132-.158.117-.168.1-.178.085-.184.066-.19.048-.195.028T63 18H46q0-.098-.01-.196t-.028-.194-.048-.19-.066-.185-.084-.178-.101-.168-.117-.158-.132-.145-.145-.132-.158-.117-.168-.1-.178-.085-.184-.066-.19-.048-.195-.028T44 16h.25v-.875h-.5V16H44q-.098 0-.196.01t-.194.028-.19.048-.185.066-.178.084-.168.101-.158.117-.145.132-.132.145-.117.158-.1.168-.085.178-.066.184-.048.19-.028.195T42 18H2q-.098 0-.196-.01t-.194-.028-.19-.048-.185-.066-.178-.084-.168-.101-.158-.117-.145-.132-.132-.145-.117-.158-.1-.168-.085-.178-.066-.184-.048-.19-.028-.195T0 16V2q0-.098.01-.196t.028-.194.048-.19.066-.185.084-.178T.337.89.454.73.586.586.73.454.89.337t.168-.1.178-.085.184-.066.19-.048.195-.028T2 0h40q0 .098.01.196t.028.194.048.19.066.185.084.178.101.168.117.158.132.145.145.132.158.117.168.1.178.085.184.066.19.048.195.028T44 2m0 0h-.25v.875h.5V2zm-.25 4.375v-1.75h.5v1.75zm0 3.5v-1.75h.5v1.75zm0 3.5v-1.75h.5v1.75z"/></svg>