<svg xmlns="http://www.w3.org/2000/svg" width="16" height="16" fill="none" viewBox="0 0 16 16"><defs><linearGradient id="master_svg1_6448_66841" x1="1" x2="0" y1=".5" y2=".5"><stop offset="0%" stop-color="#77492f"/><stop offset="100%" stop-color="#ab784e"/></linearGradient><clipPath id="master_svg0_7005_81813/6583_89269"><rect width="16" height="16" rx="0"/></clipPath></defs><g clip-path="url(#master_svg0_7005_81813/6583_89269)"><path fill="url(#master_svg1_6448_66841)" d="m2.958 1.7 1.35-.198c2.452-.36 4.933-.36 7.385 0l1.349.198c.328.049.621.264.763.563l1.956 4.145a.72.72 0 0 1-.112.785l-6.886 7.658a1.024 1.024 0 0 1-1.525 0L.352 7.193a.72.72 0 0 1-.112-.785l1.956-4.145c.141-.3.435-.514.762-.563"/><path fill="#fff" fill-rule="evenodd" d="M7.955 3.88h.932c.102 0 .165.111.11.197L7.342 6.699h3.406c.1 0 .161.11.107.195l-.501.794-1.78 2.819a.65.65 0 0 1-.547.298h-.932a.128.128 0 0 1-.11-.196l1.654-2.62H5.232a.127.127 0 0 1-.107-.195L5.627 7l1.78-2.821a.65.65 0 0 1 .548-.299"/></g></svg>