<svg xmlns="http://www.w3.org/2000/svg" width="9" height="9" fill="none" viewBox="0 0 9.75 9.75"><g style="opacity:.8999999761581421"><circle cx="4.875" cy="4.875" r="4.313" stroke="#000" stroke-opacity=".4" stroke-width=".75"/><path fill="#000" fill-opacity=".4" d="M4.375 4.114v3.022q0 .048.018.092t.052.077.077.052.092.018h.522q.048 0 .092-.018t.077-.052.052-.077.018-.092V4.114q0-.048-.018-.092t-.052-.077-.077-.052-.092-.018h-.522q-.048 0-.092.018t-.077.052-.052.077-.018.092M5.5 2.75q0-.062-.012-.122t-.036-.117-.057-.108-.078-.095-.095-.078-.108-.057-.117-.036-.122-.012-.122.012-.117.036-.108.057-.095.078-.078.095-.057.108-.036.117-.012.122.012.122.036.117.057.108.078.095.095.078.108.057.117.036.122.012.122-.012.117-.036q.057-.023.108-.057.051-.035.095-.078.043-.044.078-.095.034-.051.057-.108.024-.057.036-.117T5.5 2.75"/></g></svg>