<svg xmlns="http://www.w3.org/2000/svg" width="120" height="104" fill="none" viewBox="0 0 124 107.403"><path fill="#737680" fill-opacity=".2" fill-rule="evenodd" d="M0 62.922q0 26.054 18.149 44.481l2.85-2.806Q4 87.337 4 62.922t16.999-41.675Q37.985 4 62 4t41.001 17.247Q120 38.507 120 62.922t-16.999 41.675l2.85 2.806Q124 88.976 124 62.922T105.851 18.44Q87.691 0 62 0T18.149 18.44Q0 36.868 0 62.922"/><path fill="#3aa170" fill-rule="evenodd" d="M62 4q11.796 0 22.565 4.625l1.579-3.675Q74.618 0 62 0 36.31 0 18.149 18.44 0 36.868 0 62.922t18.149 44.481l2.85-2.806Q4 87.337 4 62.922t16.999-41.675Q37.985 4 62 4"/></svg>