<svg xmlns="http://www.w3.org/2000/svg" width="24" height="24" fill="none" viewBox="0 0 24 24"><path fill="#1a1a1a" d="M11.482 15.188h1.029c.112 0 .202.09.202.203v1.024c0 .17-.14.302-.31.302h-.813a.306.306 0 0 1-.31-.302v-1.024c0-.113.09-.203.202-.203M12.71 13.561v.736c0 .17-.139.3-.308.3h-.81a.31.31 0 0 1-.31-.308v-1.286c0-.563.478-.988 1.026-1.117.561-.132 1.01-.452 1.01-1.222a1.322 1.322 0 0 0-2.609-.302c-.038.164-.174.302-.343.302h-.811c-.169 0-.31-.135-.292-.303a2.75 2.75 0 1 1 3.674 2.888.34.34 0 0 0-.227.312"/><path fill="#1a1a1a" fill-rule="evenodd" d="M12 3.55a8.45 8.45 0 0 0-6.657 13.655.41.41 0 0 1-.05.565l-.535.46a.38.38 0 0 1-.552-.045A9.907 9.907 0 0 1 2.05 12c0-5.495 4.455-9.95 9.95-9.95s9.95 4.455 9.95 9.95-4.455 9.95-9.95 9.95H3.368a.197.197 0 0 1-.161-.31l.498-.747a.99.99 0 0 1 .828-.443H12a8.45 8.45 0 0 0 0-16.9"/></svg>