<svg xmlns="http://www.w3.org/2000/svg" width="66.66" height="11.34" fill="none" viewBox="0 0 66.662 11.336"><rect width="21" height="10.333" x="42.834" y=".503" stroke="#000" stroke-opacity=".35" rx="2.167" style="opacity:.3499999940395355"/><path fill="#000" d="M65.334 3.67v4a2.17 2.17 0 0 0 0-4" style="opacity:.4000000059604645"/><rect width="18" height="7.333" x="44.334" y="2.003" fill="#000" rx="1.333"/><path fill="#000" fill-rule="evenodd" d="M29.667 2.284c2.225 0 4.365.855 5.977 2.386a.31.31 0 0 0 .435-.003l1.16-1.17a.323.323 0 0 0-.002-.458c-4.232-4.052-10.908-4.052-15.14 0a.323.323 0 0 0-.003.458l1.16 1.17a.31.31 0 0 0 .436.003 8.68 8.68 0 0 1 5.977-2.386m3.307 5.082a4.93 4.93 0 0 0-6.612 0 .31.31 0 0 1-.435-.006l-1.159-1.17a.323.323 0 0 1 .005-.46 7.19 7.19 0 0 1 9.79 0 .323.323 0 0 1 .005.46L33.41 7.36a.31.31 0 0 1-.435.006m-1.079 1.52a.315.315 0 0 0-.01-.46 3.44 3.44 0 0 0-4.436 0 .315.315 0 0 0-.01.46l2.006 2.021a.313.313 0 0 0 .445 0zM15 .336h1a1 1 0 0 1 1 1v8.667a1 1 0 0 1-1 1h-1a1 1 0 0 1-1-1V1.336a1 1 0 0 1 1-1m-4.667 2.333h1a1 1 0 0 1 1 1v6.334a1 1 0 0 1-1 1h-1a1 1 0 0 1-1-1V3.669a1 1 0 0 1 1-1M5.667 5.003h1a1 1 0 0 1 1 1v4a1 1 0 0 1-1 1h-1a1 1 0 0 1-1-1v-4a1 1 0 0 1 1-1M1 7.003h1a1 1 0 0 1 1 1v2a1 1 0 0 1-1 1H1a1 1 0 0 1-1-1v-2a1 1 0 0 1 1-1"/></svg>