<svg xmlns="http://www.w3.org/2000/svg" width="32" height="32" fill="none" viewBox="0 0 32.157 32"><path fill="#181916" fill-rule="evenodd" d="m14.502 8.741-3.004 3.494a.229.229 0 0 1-.402-.148v-1.261c0-.237.089-.466.243-.646l3.09-3.594a1.157 1.157 0 0 1 1.737 0l3.089 3.592c.154.18.243.408.242.646v1.261a.23.23 0 0 1-.404.149L15.987 8.62v15.11a.57.57 0 0 1-.57.57h-.344a.57.57 0 0 1-.57-.57z"/><path fill="#181916" fill-rule="evenodd" d="M23.545 16.215q-3.107-.217-4.954 1.607-1.944 1.918-2.594 5.882a.4.4 0 0 1-.45.332l-.648-.09a.39.39 0 0 1-.334-.446q.76-4.714 2.983-6.735 2.345-2.315 6.157-2.027a.386.386 0 0 1 .352.43l-.074.689a.41.41 0 0 1-.438.358"/></svg>