<svg xmlns="http://www.w3.org/2000/svg" width="12" height="12" fill="none" viewBox="0 0 12 12"><defs><clipPath id="master_svg0_2019_012225/6881_047571/6881_045140"><rect width="13" height="13" x="-.5" y="-.5" rx="0"/></clipPath></defs><g fill="#000" fill-opacity=".6" fill-rule="evenodd" clip-path="url(#master_svg0_2019_012225/6881_047571/6881_045140)"><path d="M1.515 1h8.97c.552 0 1.015.46 1.015 1.013v2.368a.86.86 0 0 1-.19.54 1.724 1.724 0 0 0 0 2.159.86.86 0 0 1 .19.539v2.368c0 .552-.463 1.013-1.015 1.013h-8.97C.963 11 .5 10.54.5 9.987V7.643c0-.21.096-.412.253-.552a1.463 1.463 0 0 0-.005-2.186.74.74 0 0 1-.248-.548V2.013C.5 1.461.963 1 1.515 1m0 1Q1.5 2 1.5 2.013v2.225q.74.715.741 1.76.002 1.05-.741 1.764v2.225q0 .013.015.013h8.97q.015 0 .015-.013v-2.32Q9.93 6.934 9.93 6t.57-1.667v-2.32Q10.5 2 10.485 2h-8.97"/><path d="M6.447 4.224Q6.5 4.118 6.5 4q0-.05-.01-.098t-.028-.093-.046-.087-.063-.075-.075-.063-.087-.046-.093-.028Q6.049 3.5 6 3.5q-.07 0-.137.02-.067.018-.126.055-.059.036-.106.088-.047.051-.078.113l-1 2Q4.5 5.882 4.5 6q0 .05.01.098t.028.093.046.087.062.076q.035.034.076.062t.087.046.093.028T5 6.5h1.191l-.638 1.276Q5.5 7.882 5.5 8q0 .05.01.098t.028.093.046.087.063.075.075.063.087.046.093.028q.049.01.098.01.07 0 .137-.02.067-.018.126-.055.059-.036.106-.088.047-.051.078-.113l1-2q.022-.044.035-.092.013-.047.017-.097.003-.049-.003-.098-.006-.048-.022-.095-.015-.047-.04-.09-.024-.042-.056-.08-.033-.037-.071-.067-.04-.03-.083-.052Q7.118 5.5 7 5.5H5.809z"/></g></svg>