<svg xmlns="http://www.w3.org/2000/svg" width="18" height="18" fill="none" viewBox="0 0 18 18"><rect width="18" height="18" fill="#3aa170" rx="9"/><path fill="#fff" fill-rule="evenodd" d="M8.85 8.466 4.563 6.252a.55.55 0 0 0-.251-.061h-.798c-.113 0-.173.129-.1.212l2.079 2.32c.045.051.11.082.179.085l2.304.117v.15l-2.304.117a.26.26 0 0 0-.18.084l-2.077 2.321c-.074.083-.014.212.099.212h.798c.087 0 .174-.02.251-.06L8.85 9.533a.12.12 0 0 0 .063-.102v-.864a.12.12 0 0 0-.063-.102m.3 0 4.287-2.214a.55.55 0 0 1 .252-.061h.797c.113 0 .174.129.1.212l-2.078 2.32a.26.26 0 0 1-.18.085l-2.304.117v.15l2.304.117c.07.003.134.034.18.084l2.078 2.321c.074.083.013.212-.1.212h-.797a.55.55 0 0 1-.252-.06L9.15 9.533a.12.12 0 0 1-.063-.102v-.864c0-.043.024-.082.063-.102"/></svg>