<svg xmlns="http://www.w3.org/2000/svg" width="12" height="12" fill="none" viewBox="0 0 12 12"><path fill="#000" fill-opacity=".6" fill-rule="evenodd" d="M1 10.5a1 1 0 0 0 1 1h8a1 1 0 0 0 1-1v-6a1 1 0 0 0-1-1H2a1 1 0 0 0-1 1zm1 0h8v-6H2z"/><path fill="#000" fill-opacity=".6" fill-rule="evenodd" d="M6.447 5.724Q6.5 5.618 6.5 5.5q0-.05-.01-.098t-.028-.093-.046-.087-.063-.075-.075-.063-.087-.046-.093-.028Q6.049 5 6 5q-.07 0-.137.02-.067.018-.126.055-.059.036-.106.088-.047.051-.078.113l-1 2Q4.5 7.382 4.5 7.5q0 .05.01.098t.028.093.046.087.062.076q.035.034.076.062t.087.046.093.028T5 8h1.191l-.638 1.276Q5.5 9.382 5.5 9.5q0 .05.01.098t.028.093.046.087.063.075.075.063.087.046.093.028Q5.951 10 6 10q.07 0 .137-.02.067-.018.126-.055.059-.036.106-.088.047-.051.078-.113l1-2q.022-.044.035-.092.013-.047.017-.097.003-.049-.003-.098-.006-.048-.022-.095-.015-.047-.04-.09-.024-.042-.056-.08-.033-.037-.071-.067-.04-.03-.083-.052Q7.118 7 7 7H5.809zM7.768 1.732Q8.5 2.464 8.5 3.5h1q0-1.45-1.025-2.475T6 0 3.525 1.025 2.5 3.5h1q0-1.036.732-1.768T6 1t1.768.732"/></svg>