<svg xmlns="http://www.w3.org/2000/svg" width="16" height="16" fill="none" viewBox="0 0 16 16"><path fill="#000" fill-rule="evenodd" d="M5.382 4.75H3.513q-.619 0-1.061.428Q2 5.614 2 6.238v3.274q0 .624.452 1.06.442.428 1.061.428h1.854l1.635.934.994.568q.488.279.979.027.525-.269.525-.86V4.3q0-.56-.479-.85-.472-.284-.968-.036l-1.027.514zm.118 1q.118 0 .224-.053l1.75-.875L8.5 4.31v7.329l-.008-.004-.994-.568-1.75-1Q5.633 10 5.5 10H3.513q-.214 0-.366-.147Q3 9.711 3 9.512V6.238q0-.2.147-.341.152-.147.366-.147H5.5"/><rect width="2.5" height="1" x="10.5" y="7.5" fill="#000" rx=".5"/><rect width="2.5" height="1" x="10.418" y="4.691" fill="#000" rx=".5" transform="rotate(-30 10.418 4.691)"/><rect width="2.5" height="1" x="10.918" y="10.441" fill="#000" rx=".5" transform="rotate(30 10.918 10.441)"/></svg>