<svg xmlns="http://www.w3.org/2000/svg" width="12" height="12" fill="none" viewBox="0 0 12 12"><circle cx="6" cy="6" r="5.5" stroke="#000" stroke-opacity=".6"/><path fill="#000" fill-opacity=".6" fill-rule="evenodd" d="M5.5 3q0-.05.01-.098t.028-.093.046-.087.063-.075.075-.063.087-.046.093-.028Q5.951 2.5 6 2.5q.05 0 .098.01t.093.028.087.046.075.063.063.075.046.087.028.093q.01.049.01.098v2.793l1.354 1.353q.07.07.108.163Q8 7.4 8 7.5q0 .05-.01.098t-.028.093-.046.087-.063.075-.075.063-.087.046-.093.028Q7.549 8 7.5 8q-.1 0-.191-.038-.092-.038-.162-.109l-1.5-1.5q-.07-.07-.109-.162T5.5 6z"/></svg>