<svg xmlns="http://www.w3.org/2000/svg" width="100" height="44" fill="none" viewBox="0 0 100 44"><rect width="87" height="32" x="7" y="6" fill="#fff" fill-opacity=".597" rx="16"/><rect width="86.5" height="31.5" x="7.25" y="6.25" stroke="#979797" stroke-opacity=".201" stroke-width=".5" rx="15.75"/><path fill="#000" fill-rule="evenodd" d="M80.667 21.833q0 .209-.01.417t-.03.416-.052.414-.071.411-.092.407-.111.402-.13.397-.151.389-.17.381q-.088.189-.187.373-.098.184-.205.363-.108.179-.224.352-.115.174-.24.341t-.256.33q-.133.16-.273.315t-.288.302q-.147.148-.302.288-.154.14-.316.273-.161.132-.329.256-.167.125-.34.24-.174.116-.353.224-.18.107-.363.205-.184.099-.373.188-.188.09-.381.169t-.39.15q-.196.07-.396.131-.2.06-.402.111t-.407.092-.41.071q-.207.03-.415.051t-.416.03q-.208.011-.417.011t-.417-.01-.416-.03-.414-.052q-.207-.03-.411-.071-.205-.041-.407-.092-.203-.05-.402-.111-.2-.06-.397-.13-.196-.071-.389-.151t-.381-.17q-.189-.088-.373-.187-.184-.098-.363-.205-.179-.108-.352-.224-.174-.115-.341-.24t-.33-.256q-.16-.133-.315-.273t-.302-.288q-.148-.147-.288-.302-.14-.154-.273-.316-.132-.16-.256-.329-.125-.167-.24-.34-.116-.174-.224-.353-.107-.18-.205-.363-.099-.184-.188-.373-.09-.188-.169-.381t-.15-.39q-.07-.196-.131-.396-.06-.2-.111-.402t-.092-.407-.071-.41q-.03-.207-.051-.415t-.03-.416q-.011-.208-.011-.417t.01-.417.03-.416.052-.414q.03-.207.071-.411.041-.205.092-.407.05-.203.111-.402.06-.2.13-.397.071-.196.151-.389t.17-.381q.088-.189.187-.373.098-.184.205-.363.108-.179.224-.352.115-.174.24-.341t.256-.33q.133-.16.273-.315t.288-.302q.147-.148.302-.288.154-.14.316-.273.16-.132.329-.256.167-.125.34-.24.174-.116.353-.224.18-.107.363-.205.184-.099.373-.188.188-.09.381-.169t.39-.15q.196-.07.396-.131.2-.06.402-.111t.407-.092.41-.071q.207-.03.415-.051t.416-.03q.208-.011.417-.011t.417.01.416.03.414.052q.207.03.411.071.205.041.407.092.203.05.402.111.2.06.397.13.196.071.389.151t.381.17q.189.088.373.187.184.098.363.205.179.108.352.224.174.115.341.24t.33.256q.16.133.315.273t.302.288q.148.147.288.302.14.154.273.316.132.161.256.329.125.167.24.34.116.174.224.353.107.18.205.363.099.184.188.373.09.188.169.381t.15.39q.07.196.131.396.06.2.111.402t.092.407.071.41q.03.207.051.415t.03.416q.011.208.011.417m-2 0q0 .16-.008.319-.008.16-.023.318-.016.159-.04.317-.023.158-.054.314-.031.157-.07.311-.039.155-.085.308t-.1.303-.115.297-.13.292q-.067.144-.143.285t-.157.278q-.082.137-.17.27-.09.132-.184.26-.095.128-.196.252-.102.123-.209.241t-.22.231-.23.22q-.12.107-.242.209-.124.1-.252.196-.128.095-.26.184-.133.088-.27.17t-.278.157q-.14.076-.285.144t-.292.13q-.147.06-.297.114t-.303.1-.308.085q-.154.039-.31.07-.157.031-.315.055-.158.023-.317.039-.159.015-.318.023-.16.008-.319.008-.16 0-.319-.008-.16-.008-.318-.023-.159-.016-.317-.04-.158-.023-.314-.054-.157-.031-.311-.07-.155-.039-.308-.085t-.303-.1-.297-.115-.292-.13q-.144-.067-.285-.143t-.278-.157q-.137-.082-.27-.17-.132-.09-.26-.184-.128-.095-.252-.196-.123-.102-.241-.209t-.231-.22-.22-.23q-.107-.12-.209-.242-.1-.124-.196-.252-.095-.128-.184-.26-.088-.133-.17-.27t-.157-.278q-.076-.14-.144-.285t-.13-.292q-.06-.147-.114-.297t-.1-.303-.085-.308q-.039-.154-.07-.31-.031-.157-.055-.315-.023-.158-.039-.317-.015-.159-.023-.318-.008-.16-.008-.319 0-.16.008-.319.008-.16.023-.318.016-.159.04-.317.023-.158.054-.314.031-.157.07-.311.039-.155.085-.308t.1-.303.115-.297.13-.292q.067-.144.143-.285t.157-.278q.082-.137.17-.27.09-.132.184-.26.095-.128.196-.252.102-.123.209-.241t.22-.231.23-.22q.12-.107.242-.209.124-.1.252-.196.128-.095.26-.184.133-.088.27-.17t.278-.157q.14-.076.285-.144t.292-.13q.147-.06.297-.114t.303-.1.308-.085q.154-.039.31-.07.157-.031.315-.055.158-.023.317-.039.159-.015.318-.023.16-.008.319-.008.16 0 .319.008.16.008.318.023.159.016.317.04.158.023.314.054.157.031.311.07.155.039.308.085t.303.1.297.115.292.13q.144.067.285.143t.278.157q.137.082.27.17.132.09.26.184.128.095.252.196.123.102.241.209t.231.22.22.23q.107.12.209.242.1.124.196.252.095.128.184.26.088.133.17.27t.157.278q.076.14.144.285t.13.292q.06.147.114.297t.1.303.085.308q.039.154.07.31.031.157.055.315.023.158.039.317.015.159.023.318.008.16.008.319m-6.5 3q.147 0 .294-.014t.291-.044.286-.071q.14-.043.277-.1.136-.056.266-.125.13-.07.253-.152.122-.081.236-.175t.218-.198q.105-.104.198-.218t.175-.236.152-.253q.07-.13.126-.266t.099-.277.071-.286q.03-.144.044-.29.014-.148.014-.295t-.014-.294q-.015-.147-.044-.291-.028-.145-.071-.286t-.1-.277-.125-.266-.152-.253-.175-.236q-.093-.114-.198-.218-.104-.105-.218-.198t-.236-.175-.253-.152q-.13-.07-.266-.126t-.277-.099-.286-.071q-.144-.03-.291-.044t-.294-.014q-.147 0-.294.014t-.291.044-.286.071q-.14.043-.277.1-.136.056-.266.125-.13.07-.253.152-.122.081-.236.175t-.218.198q-.105.104-.198.218t-.175.236-.152.253q-.07.13-.126.266t-.099.277-.071.286q-.03.144-.044.291t-.014.294q0 .147.014.294t.044.291.071.286q.043.14.1.277.056.136.125.266.07.13.152.253.081.122.175.236t.198.218q.104.105.218.198t.236.175.253.152q.13.07.266.126t.277.099.286.071q.144.03.29.044.148.014.295.014"/><rect width=".5" height="18.5" x="50.5" y="12.5" fill="#000" fill-opacity=".199" rx="0"/><path fill="#000" d="M24.5 22.5q0 .098-.01.196t-.028.194-.048.19-.066.185-.084.178-.101.168-.117.158-.132.145-.145.132-.158.117-.168.1-.178.085-.184.066-.19.048-.195.028-.196.01-.196-.01-.194-.028-.19-.048-.185-.066-.178-.084-.168-.101-.158-.117-.145-.132-.132-.145-.117-.158-.1-.168-.085-.178q-.037-.09-.066-.184-.028-.094-.048-.19-.019-.097-.028-.195t-.01-.196.01-.196.028-.194.048-.19q.029-.095.066-.185.038-.091.084-.178.046-.086.101-.168t.117-.158.132-.145.145-.132.158-.117.168-.1q.087-.047.178-.085.09-.037.184-.066.094-.028.19-.048.097-.019.195-.028t.196-.01.196.01.194.028.19.048q.095.029.185.066.091.038.178.084.086.046.168.101t.158.117.145.132.132.145.117.158.1.168q.047.087.085.178.037.09.066.184.028.094.048.19.019.097.028.195t.01.196m14.5 0q0 .098-.01.196t-.028.194-.048.19-.066.185-.084.178-.101.168-.117.158-.132.145-.145.132-.158.117-.168.1-.178.085-.184.066-.19.048-.195.028-.196.01-.196-.01-.194-.028-.19-.048-.185-.066-.178-.084-.168-.101-.158-.117-.145-.132-.132-.145-.117-.158-.1-.168-.085-.178q-.037-.09-.066-.184-.028-.094-.048-.19-.019-.097-.028-.195T35 22.5t.01-.196.028-.194.048-.19q.029-.095.066-.185.038-.091.084-.178.046-.086.101-.168t.117-.158.132-.145.145-.132.158-.117.168-.1q.087-.047.178-.085.09-.037.184-.066.094-.028.19-.048.097-.019.195-.028T37 20.5t.196.01.194.028.19.048q.095.029.185.066.091.038.178.084.086.046.168.101t.158.117.145.132.132.145.117.158.1.168q.047.087.085.178.037.09.066.184.028.094.048.19.019.097.028.195t.01.196m-6-.25q0 .16-.016.319-.015.158-.046.315-.032.157-.078.31-.046.152-.107.3-.061.147-.137.288-.075.14-.164.274-.088.132-.19.256-.101.123-.214.236t-.236.214q-.124.102-.256.19-.133.089-.274.164-.14.076-.288.137-.148.06-.3.107-.153.046-.31.078-.157.03-.315.046-.16.016-.319.016-.16 0-.319-.016-.158-.015-.315-.046-.157-.032-.31-.078-.152-.046-.3-.107-.147-.061-.288-.137-.14-.075-.274-.164-.132-.088-.256-.19-.123-.101-.236-.214t-.214-.236q-.102-.124-.19-.256-.089-.133-.164-.274-.076-.14-.137-.288-.06-.148-.107-.3-.046-.153-.078-.31-.03-.157-.046-.315-.016-.16-.016-.319 0-.16.016-.319.015-.158.046-.315.032-.157.078-.31.046-.152.107-.3.061-.147.137-.288.075-.14.164-.274.088-.132.19-.256.101-.123.214-.236t.236-.214q.124-.102.256-.19.133-.089.274-.164.14-.076.288-.137.148-.06.3-.107.153-.046.31-.078.157-.03.315-.046.16-.016.319-.016.16 0 .319.016.158.015.315.046.157.032.31.078.152.046.3.107.147.061.288.137.14.075.274.164.132.088.256.19.123.101.236.214t.214.236q.102.124.19.256.089.133.164.274.076.14.137.288.06.148.107.3.046.153.078.31.03.157.046.315.016.16.016.319"/></svg>